With: Alison Lohman, Justin Long en Lorna Raver

Christine Brown (Alison Lohman) is een ambitieuze bank-employee met een prima leventje. Op een dag echter verschijnt de mysterieuze vrouw Mrs. Ganush (Lorna Raver) aan het bankloket om voor de zoveelste keer uitstel van betaling te vragen. Moet Christine toegeven aan deze bedelaarsactie of de ambities van haar baas laten prevaleren? Christine kiest voor het laatste waardoor Mrs. Ganusch het huis uit wordt gezet. Omgekeerd plaatst de oude vrouw de machtige vloek van de Lamia op Christine, en transformeert haar leven in een hel. Noodgedwongen zoekt zij de hulp van helderziende Rham Jas (Dileep Rao) om haar ziel van eeuwige verdoemenis te redden.

A loan officer who evicts an old woman from her home finds herself the recipient of a supernatural curse. Desperate, she turns to a seer to try and save her soul, while evil forces work to push her to a breaking point. 

------------------ Dutch Friends ------------------
You can find my Friends at: http://www.Film-Test.nl 
------ They got my dutchs subs ---- and more ------

General:

Complete name                    : Drag Me to Hell\Drag Me to Hell.avi
Format                           : AVI
Format/Info                      : Audio Video Interleave
File size                        : 1.32 GiB
Duration                         : 1h 34mn
Overall bit rate                 : 1 996 Kbps

Video:

Format                           : MPEG-4 Visual
Format profile                   : Simple@L3
Format settings, BVOP            : No
Format settings, QPel            : No
Format settings, GMC             : No warppoints
Format settings, Matrix          : Default (H.263)
Codec ID                         : XVID
Codec ID/Hint                    : XviD
Duration                         : 1h 34mn
Bit rate                         : 1 601 Kbps
Width                            : 720 pixels
Height                           : 304 pixels
Display aspect ratio             : 2.35:1
Frame rate                       : 25.000 fps
Color space                      : YUV
Chroma subsampling               : 4:2:0
Bit depth                        : 8 bits
Scan type                        : Progressive
Bits/(Pixel*Frame)               : 0.293
Stream size                      : 1.06 GiB (80%)
Writing library                  : XviD 1.1.2 (UTC 2006-11-01)

Audio:

Format                           : AC-3
Format/Info                      : Audio Coding 3
Mode extension                   : CM (complete main)
Codec ID                         : 2000
Duration                         : 1h 34mn
Bit rate mode                    : Constant
Bit rate                         : 384 Kbps
Channel(s)                       : 6 channels
Channel positions                : Front: L C R, Side: L R, LFE
Sampling rate                    : 48.0 KHz
Bit depth                        : 16 bits
Stream size                      : 261 MiB (19%)
Alignment                        : Aligned on interleaves
Interleave, duration             : 32 ms (0.80 video frame)
Interleave, preload duration     : 896 ms

